<svg width="150" viewBox="0 0 312 101" fill="none" xmlns="http://www.w3.org/2000/svg">
<path d="M36.5903 101C24.0808 101 14.8327 96.7469 8.84601 88.2407C2.94867 79.7345 0 67.8258 0 52.5146C0 37.2035 2.94867 25.2948 8.84601 16.7886C14.8327 8.28236 24.0808 4.02925 36.5903 4.02925C49.0998 4.02925 58.3033 8.28236 64.2006 16.7886C70.1873 25.2948 73.1807 37.2035 73.1807 52.5146C73.1807 67.8258 70.1873 79.7345 64.2006 88.2407C58.3033 96.7469 49.0998 101 36.5903 101ZM36.5903 85.1516C42.577 85.1516 46.732 83.0474 49.0552 78.8391C51.4677 74.6308 52.674 68.766 52.674 61.2447V43.7846C52.674 36.2633 51.4677 30.3985 49.0552 26.1902C46.732 21.9818 42.577 19.8777 36.5903 19.8777C30.6036 19.8777 26.404 21.9818 23.9915 26.1902C21.6683 30.3985 20.5067 36.2633 20.5067 43.7846V61.2447C20.5067 68.766 21.6683 74.6308 23.9915 78.8391C26.404 83.0474 30.6036 85.1516 36.5903 85.1516ZM36.5903 60.4388C33.463 60.4388 31.2738 59.8121 30.0228 58.5585C28.8612 57.305 28.2804 55.7828 28.2804 53.992V51.0372C28.2804 49.2465 28.8612 47.7243 30.0228 46.4707C31.2738 45.2172 33.463 44.5904 36.5903 44.5904C39.7177 44.5904 41.8622 45.2172 43.0238 46.4707C44.2747 47.7243 44.9002 49.2465 44.9002 51.0372V53.992C44.9002 55.7828 44.2747 57.305 43.0238 58.5585C41.8622 59.8121 39.7177 60.4388 36.5903 60.4388Z" fill="#A799CC"/>
<path d="M79.8298 99.3883L105.698 64.1995L81.5722 30.0851H104.223L111.595 41.2327L117.224 50.2314H118.297L124.06 41.2327L131.566 30.0851H152.34L128.215 63.125L154.083 99.3883H131.298L122.586 86.3604L116.554 77.0931H115.482L109.585 86.3604L100.739 99.3883H79.8298Z" fill="#A799CC"/>
<path d="M179.094 99.3883L211.261 22.0266H180.971V39.0838H163.949V5.64096H231.232V23.1011L200.271 99.3883H179.094Z" fill="#A799CC"/>
<path d="M246.995 83.9428H267.368V45.5306H245.655V30.0851H267.368V20.012C267.368 14.1024 269.066 9.31206 272.461 5.64096C275.946 1.88032 281.307 0 288.545 0H312V15.4455H287.204V30.0851H312V45.5306H287.204V83.9428H308.917V99.3883H246.995V83.9428Z" fill="#A799CC"/>
</svg>
